<svg width="18" height="18" viewBox="0 0 18 18" fill="none" xmlns="http://www.w3.org/2000/svg">
<g clip-path="url(#clip0_1016_7253)">
<path d="M13.8226 10.064C13.3385 7.62747 15.6512 6.19848 15.6512 6.19848C15.6512 6.19848 14.7501 4.89488 13.2358 4.55952C11.7222 4.22342 10.9647 4.64334 10.2086 4.95829C9.45183 5.27401 9.0742 5.27401 9.0742 5.27401C7.98208 5.27401 7.18373 4.11768 5.10296 4.64411C3.66945 5.00588 2.16039 6.6607 1.88773 8.63577C1.61508 10.6116 2.20345 13.1327 3.33787 15.0866C4.47229 17.042 5.62789 17.7769 6.44809 17.798C7.26832 17.8184 8.08706 17.2104 9.0742 17.0624C10.0621 16.9159 10.6701 17.4204 11.6391 17.6931C12.6043 17.965 12.9427 17.7127 14.0545 16.7671C15.1693 15.8215 16.1783 13.1093 16.1783 13.1093C16.1783 13.1093 14.3068 12.502 13.8226 10.064Z" fill="black"/>
<path d="M11.6791 2.98391C12.7516 1.89106 12.3883 0.199219 12.3883 0.199219C12.3883 0.199219 10.8823 0.463574 9.87326 1.5134C8.86496 2.56399 9.03187 4.22334 9.03187 4.22334C9.03187 4.22334 10.6066 4.07607 11.6791 2.98391Z" fill="black"/>
</g>
<defs>
<clipPath id="clip0_1016_7253">
<rect width="17.6" height="17.6" fill="white" transform="translate(0.199997 0.199219)"/>
</clipPath>
</defs>
</svg>
