<svg width="37" height="37" viewBox="0 0 37 37" fill="none" xmlns="http://www.w3.org/2000/svg">
<g clip-path="url(#clip0_1159_11070)">
<path d="M17.9731 26.1016H19.2236V36.7302H17.9731V26.1016Z" fill="#5568CC"/>
<path d="M7.97009 26.1016H16.7231V36.7302H7.97009V26.1016Z" fill="#5568CC"/>
<path d="M20.474 36.7302H29.227V26.1016H20.474V36.7302ZM26.7262 34.2294H27.9766V35.4798H26.7262V34.2294ZM24.2253 34.2294H25.4757V35.4798H24.2253V34.2294ZM21.7244 34.2294H22.9749V35.4798H21.7244V34.2294Z" fill="#5568CC"/>
<path d="M2.96863 9.84766H4.21906V11.0981H2.96863V9.84766Z" fill="#5568CC"/>
<path d="M2.96863 12.3477H4.21906V19.8502H2.96863V12.3477Z" fill="#5568CC"/>
<path d="M5.46912 22.3516H6.71955V23.602H5.46912V22.3516Z" fill="#5568CC"/>
<path d="M5.46912 13.5977H6.71955V21.1003H5.46912V13.5977Z" fill="#5568CC"/>
<path d="M30.4771 22.3516H31.7275V23.602H30.4771V22.3516Z" fill="#5568CC"/>
<path d="M30.4771 13.5977H31.7275V21.1003H30.4771V13.5977Z" fill="#5568CC"/>
<path d="M32.978 9.84766H34.2285V11.0981H32.978V9.84766Z" fill="#5568CC"/>
<path d="M32.978 12.3477H34.2285V19.8502H32.978V12.3477Z" fill="#5568CC"/>
<path d="M35.479 6.72266H36.7294V7.97309H35.479V6.72266Z" fill="#5568CC"/>
<path d="M35.479 9.22266H36.7294V16.7253H35.479V9.22266Z" fill="#5568CC"/>
<path d="M0.467651 6.72266H1.71808V7.97309H0.467651V6.72266Z" fill="#5568CC"/>
<path d="M0.467651 9.22266H1.71808V16.7253H0.467651V9.22266Z" fill="#5568CC"/>
<path d="M20.474 4.84375H30.4775V7.34461H20.474V4.84375Z" fill="#5568CC"/>
<path d="M26.1017 2.49643C26.1017 1.37849 25.1925 0.46875 24.0746 0.46875C23.5327 0.46875 23.0238 0.679394 22.6416 1.06222L20.1084 3.59483H26.1017V2.49643Z" fill="#5568CC"/>
<path d="M6.72083 4.84375H16.7243V7.34461H6.72083V4.84375Z" fill="#5568CC"/>
<path d="M14.5571 1.06283C14.1743 0.679394 13.6654 0.46875 13.1235 0.46875C12.0056 0.46875 11.0964 1.37849 11.0964 2.49643V3.59483H17.0897L14.5571 1.06283Z" fill="#5568CC"/>
<path d="M17.9731 4.84375H19.2236V7.34461H17.9731V4.84375Z" fill="#5568CC"/>
<path d="M11.7223 16.725C11.7223 20.5233 14.8014 23.6024 18.5997 23.6024C22.398 23.6024 25.4771 20.5233 25.4771 16.725C25.4771 12.9267 22.398 9.84766 18.5997 9.84766C14.8014 9.84766 11.7223 12.9267 11.7223 16.725ZM19.8501 12.9737C20.8841 12.9737 21.7258 13.8154 21.7258 14.8494H20.4753C20.4753 14.505 20.1951 14.2242 19.8501 14.2242H17.3492C17.0043 14.2242 16.724 14.505 16.724 14.8494V15.4746C16.724 15.819 17.0043 16.0998 17.3492 16.0998H19.8501C20.8841 16.0998 21.7258 16.9415 21.7258 17.9755V18.6007C21.7258 19.6347 20.8841 20.4763 19.8501 20.4763H19.2249V21.1015H17.9745V20.4763H17.3492C16.3152 20.4763 15.4736 19.6347 15.4736 18.6007H16.724C16.724 18.945 17.0043 19.2259 17.3492 19.2259H19.8501C20.1951 19.2259 20.4753 18.945 20.4753 18.6007V17.9755C20.4753 17.6311 20.1951 17.3502 19.8501 17.3502H17.3492C16.3152 17.3502 15.4736 16.5086 15.4736 15.4746V14.8494C15.4736 13.8154 16.3152 12.9737 17.3492 12.9737H17.9745V12.3485H19.2249V12.9737H19.8501Z" fill="#5568CC"/>
</g>
<defs>
<clipPath id="clip0_1159_11070">
<rect width="36.2625" height="36.2625" fill="white" transform="translate(0.467651 0.46875)"/>
</clipPath>
</defs>
</svg>
