<svg width="12" height="12" viewBox="0 0 12 12" fill="none" xmlns="http://www.w3.org/2000/svg">
<path d="M11.2724 5.00304C11.3828 4.89545 11.4609 4.75911 11.4978 4.60944C11.5348 4.45978 11.5291 4.30276 11.4814 4.15615C11.4338 4.00955 11.3461 3.8792 11.2282 3.77986C11.1103 3.68052 10.967 3.61616 10.8144 3.59404L8.02439 3.18904C7.96574 3.18061 7.91003 3.15798 7.86211 3.12313C7.81418 3.08827 7.77549 3.04224 7.7494 2.98904L6.5014 0.461041C6.43325 0.322673 6.32772 0.20615 6.19676 0.124668C6.06579 0.0431862 5.91464 0 5.7604 0C5.60616 0 5.455 0.0431862 5.32404 0.124668C5.19308 0.20615 5.08754 0.322673 5.0194 0.461041L3.7734 2.98804C3.74723 3.04119 3.70852 3.08718 3.66061 3.12202C3.6127 3.15687 3.55702 3.17952 3.4984 3.18804L0.708396 3.59304C0.555628 3.61502 0.412073 3.67935 0.294006 3.77876C0.17594 3.87816 0.0880858 4.00866 0.040405 4.15545C-0.00727588 4.30224 -0.012876 4.45945 0.0242395 4.60926C0.061355 4.75907 0.139701 4.89549 0.250396 5.00304L2.2694 6.97004C2.31177 7.01134 2.34346 7.06232 2.36175 7.11858C2.38005 7.17485 2.38438 7.23472 2.3744 7.29304L1.9014 10.072C1.87983 10.1901 1.8848 10.3114 1.91593 10.4273C1.94706 10.5432 2.00358 10.6507 2.0814 10.742C2.20372 10.8855 2.371 10.9834 2.55602 11.0197C2.74105 11.056 2.93291 11.0287 3.1004 10.942L5.5954 9.63004C5.64801 9.6031 5.70628 9.58905 5.7654 9.58905C5.82451 9.58905 5.88278 9.6031 5.9354 9.63004L8.4354 10.942C8.55325 11.0064 8.68513 11.0407 8.8194 11.042C8.94058 11.0414 9.06015 11.0142 9.16969 10.9624C9.27922 10.9106 9.37607 10.8353 9.45339 10.742C9.53121 10.6507 9.58773 10.5432 9.61886 10.4273C9.64999 10.3114 9.65496 10.1901 9.6334 10.072L9.14939 7.29304C9.13941 7.23472 9.14375 7.17485 9.16204 7.11858C9.18033 7.06232 9.21202 7.01134 9.2544 6.97004L11.2724 5.00304Z" fill="#F8DA48"/>
</svg>
