<svg width="208" height="202" viewBox="0 0 208 202" fill="none" xmlns="http://www.w3.org/2000/svg">
<path fill-rule="evenodd" clip-rule="evenodd" d="M175.02 25.1734C181.856 25.1734 187.397 19.6375 187.397 12.8194C187.397 5.98909 181.856 0.453125 175.02 0.453125C168.184 0.453125 162.643 5.98909 162.643 12.8194C162.643 19.6375 168.184 25.1734 175.02 25.1734Z" fill="#FE76A8"/>
<path fill-rule="evenodd" clip-rule="evenodd" d="M60.9378 109.999L46.5456 87.9268C-2.55541 49.4862 -22.4283 120.891 35.1637 114.061L60.9378 109.999Z" fill="#FE76A8"/>
<path fill-rule="evenodd" clip-rule="evenodd" d="M82.0594 87.9372C118.147 42.5948 46.9188 21.9366 53.8271 83.8751L65.8326 104.545L82.0594 87.9372Z" fill="#FE76A8"/>
<path fill-rule="evenodd" clip-rule="evenodd" d="M88.2476 201.545L97.1347 161.307L88.2476 123.202H70.0895L47.8655 121.285L43.4159 138.061V193.661C43.4159 197.999 46.9661 201.545 51.3077 201.545H88.2476Z" fill="#99E6FC"/>
<path fill-rule="evenodd" clip-rule="evenodd" d="M162.606 193.662V142.351V127.613C162.606 125.192 160.615 123.203 158.193 123.203H117.775L107.209 162.387L117.775 201.546H154.715C159.056 201.546 162.606 197.999 162.606 193.662Z" fill="#99E6FC"/>
<path fill-rule="evenodd" clip-rule="evenodd" d="M82.0585 87.9404C106.825 56.8212 81.0392 37.3253 64.6682 48.1819C78.1605 48.9367 89.8423 65.0896 73.1117 88.3121L75.0787 91.8229L82.0585 87.9404Z" fill="#FE5694"/>
<path fill-rule="evenodd" clip-rule="evenodd" d="M46.5465 87.9265C18.5299 65.9983 0.0361562 79.8141 0 94.4692C5.82887 86.0334 19.4293 82.0192 37.8633 93.9301C38.6068 92.7796 39.6264 91.7851 40.9098 91.0782L46.5465 87.9265Z" fill="#FE5694"/>
<path fill-rule="evenodd" clip-rule="evenodd" d="M88.2471 123.203H117.775V201.546H88.2471V123.203Z" fill="#FE76A8"/>
<path fill-rule="evenodd" clip-rule="evenodd" d="M162.607 142.351V127.613C162.607 125.192 160.616 123.203 158.193 123.203H140.383C142.806 123.203 144.797 125.192 144.797 127.613V142.351V193.661C144.797 197.999 141.235 201.546 136.893 201.546H154.715C159.057 201.546 162.607 197.999 162.607 193.661V142.351H162.607Z" fill="#2ED1E2"/>
<path d="M36.5079 101.024C36.1569 101.024 35.8002 100.964 35.4512 100.838C31.0036 99.2206 27.4993 98.2635 20.6881 97.5184C18.9908 97.3328 17.7651 95.8065 17.9508 94.1096C18.1364 92.4131 19.6623 91.1891 21.3613 91.3739C27.9392 92.0938 32.0282 93.016 37.5649 95.0285C39.1696 95.6119 39.9976 97.3852 39.4142 98.9895C38.9576 100.245 37.7713 101.024 36.5079 101.024Z" fill="#FE0263"/>
<path d="M67.6228 84.0916C67.5407 84.0916 67.4582 84.0883 67.375 84.0818C65.6724 83.947 64.4016 82.4585 64.5365 80.7567C64.9354 75.7261 67.2949 68.6772 70.1472 63.9956C71.0353 62.538 72.9377 62.0749 74.3962 62.9633C75.855 63.851 76.3173 65.7526 75.4293 67.2103C73.099 71.0355 71.0223 77.2004 70.7017 81.245C70.5738 82.8631 69.2193 84.0916 67.6228 84.0916Z" fill="#FE0263"/>
<path d="M139.855 108.571C139.105 108.571 138.354 108.3 137.759 107.752C136.503 106.595 136.425 104.64 137.582 103.385C150.821 89.0416 146.897 51.253 146.856 50.8727C146.672 49.1758 147.899 47.6512 149.597 47.4671C151.296 47.2851 152.82 48.5104 153.004 50.2069C153.185 51.8725 157.252 91.1906 142.128 107.576C141.519 108.236 140.688 108.571 139.855 108.571Z" fill="#E0D2CE"/>
<path d="M171.196 65.5021C170.968 65.5021 170.736 65.4765 170.504 65.4237C168.842 65.043 167.801 63.392 168.179 61.7301C168.247 61.4298 169.909 54.2847 175.14 46.2792C182.106 35.6179 192.151 28.4647 204.189 25.5929C205.851 25.1968 207.519 26.221 207.915 27.8813C208.312 29.5417 207.286 31.2089 205.626 31.605C195.078 34.1213 186.604 40.1338 180.439 49.4751C175.754 56.5743 174.223 63.0398 174.208 63.104C173.878 64.5328 172.604 65.5021 171.196 65.5021Z" fill="#E0D2CE"/>
<path fill-rule="evenodd" clip-rule="evenodd" d="M137.528 27.378L143.597 20.0687C144.844 18.6545 144.76 18.2353 142.925 17.7799L133.498 15.4431C132.431 15.1795 132.371 14.8919 131.843 14.029L127.082 6.08436C126.122 4.46667 125.535 4.46667 124.563 6.08436L119.802 14.029C119.287 14.8919 119.214 15.1795 118.147 15.4431L108.72 17.7799C106.898 18.2353 106.801 18.6545 108.049 20.0687L114.13 27.378C114.777 28.1567 114.873 29.0675 114.789 30.1701L114.058 39.2051C113.854 41.0743 114.249 41.3022 116.001 40.5953L124.288 37.1442C125.152 36.7847 126.507 36.7847 127.359 37.1442L135.658 40.5953C137.409 41.3022 137.793 41.0747 137.589 39.2051L136.869 30.1701C136.785 29.0675 136.868 28.1567 137.528 27.378Z" fill="#FECE85"/>
<path fill-rule="evenodd" clip-rule="evenodd" d="M126.171 19.8415C124.935 27.75 122.309 34.64 119.131 39.2895L124.288 37.1445C125.152 36.785 126.507 36.785 127.358 37.1445L135.658 40.5956C137.409 41.3025 137.793 41.075 137.589 39.2054L136.869 30.1704C136.785 29.0678 136.869 28.1574 137.529 27.3783L143.597 20.069C144.845 18.6548 144.761 18.2356 142.926 17.7802L133.499 15.4434C132.432 15.1798 132.372 14.8922 131.844 14.0293L127.083 6.08466C126.927 5.821 126.783 5.60528 126.651 5.4375C127.106 9.74009 126.986 14.6773 126.171 19.8415Z" fill="#FDB440"/>
<path fill-rule="evenodd" clip-rule="evenodd" d="M197.999 98.4244L204.067 91.1152C205.326 89.7014 205.231 89.2818 203.396 88.8264L193.969 86.4896C192.914 86.2259 192.842 85.9383 192.326 85.0759L187.564 77.1312C186.593 75.5135 186.005 75.5135 185.046 77.1312L180.272 85.0759C179.757 85.9387 179.684 86.2264 178.629 86.4896L169.202 88.8264C167.367 89.2818 167.271 89.701 168.531 91.1152L174.599 98.4244C175.259 99.2032 175.343 100.114 175.259 101.217L174.527 110.239C174.336 112.121 174.719 112.348 176.471 111.641L184.758 108.19C185.622 107.831 186.977 107.831 187.84 108.19L196.128 111.641C197.879 112.348 198.263 112.121 198.071 110.239L197.339 101.217C197.255 100.114 197.339 99.2036 197.999 98.4244Z" fill="#FECE85"/>
<path fill-rule="evenodd" clip-rule="evenodd" d="M186.654 90.8876C185.407 98.7961 182.792 105.686 179.602 110.336L184.759 108.191C185.623 107.831 186.978 107.831 187.841 108.191L196.129 111.642C197.88 112.349 198.264 112.121 198.072 110.24L197.34 101.217C197.256 100.114 197.34 99.204 198 98.4248L204.069 91.1155C205.328 89.7018 205.232 89.2821 203.397 88.8267L193.97 86.49C192.915 86.2263 192.843 85.9387 192.327 85.0762L187.566 77.1316C187.41 76.8679 187.266 76.6522 187.122 76.4727C187.589 80.7862 187.457 85.7234 186.654 90.8876Z" fill="#FDB440"/>
<path fill-rule="evenodd" clip-rule="evenodd" d="M187.396 12.8194C187.396 5.98909 181.855 0.453125 175.019 0.453125C172.764 0.453125 170.653 1.05234 168.83 2.10656C172.536 4.23937 175.019 8.24175 175.019 12.819C175.019 17.3844 172.536 21.3868 168.83 23.5196C170.653 24.5742 172.764 25.173 175.019 25.173C181.855 25.1734 187.396 19.6375 187.396 12.8194Z" fill="#FE5694"/>
<path fill-rule="evenodd" clip-rule="evenodd" d="M41.7736 110.371L61.9703 106.536L75.0792 91.8214L70.8696 84.2842C70.0783 82.8583 68.9387 81.7557 67.6192 81.0009C65.0765 79.551 61.8383 79.4193 59.1038 80.9412L53.8266 83.8771L46.5466 87.9274L40.9099 91.0787C38.2953 92.5286 36.7361 95.153 36.5082 97.933C36.3644 99.5746 36.7 101.276 37.5636 102.822L41.7736 110.371Z" fill="#FECE85"/>
<path fill-rule="evenodd" clip-rule="evenodd" d="M87.2519 113.642L122.584 93.9663C125.499 92.3368 126.554 88.6338 124.935 85.7222L118.662 74.4825C117.031 71.5709 113.325 70.5163 110.411 72.1458L82.0588 87.9391L75.0786 91.8217V106.536L87.2519 113.642Z" fill="#01D0FB"/>
<path fill-rule="evenodd" clip-rule="evenodd" d="M18.613 151.879L53.9453 132.192L54.9529 117.477L41.7721 110.371L35.1636 114.062L6.42749 130.059C3.52524 131.676 2.4698 135.379 4.08871 138.291L10.3612 149.543C11.9809 152.442 15.6989 153.497 18.613 151.879Z" fill="#01D0FB"/>
<path fill-rule="evenodd" clip-rule="evenodd" d="M73.1115 88.3105L70.8686 84.2842C70.0773 82.8583 68.9377 81.7557 67.6182 81.0009C65.0755 79.551 61.8373 79.4193 59.1028 80.9412L53.8256 83.8771L48.8125 86.6693C51.547 85.1475 54.7734 85.2791 57.3279 86.729C58.647 87.4838 59.7865 88.5982 60.5783 90.0123L64.7879 97.5613L75.0782 91.8218L73.1115 88.3105Z" fill="#FDB440"/>
<path fill-rule="evenodd" clip-rule="evenodd" d="M122.584 93.9663C125.499 92.3368 126.554 88.6338 124.935 85.7222L118.662 74.4825C117.031 71.5709 113.325 70.5163 110.411 72.1458L96.2349 80.0424C99.1493 78.413 102.855 79.4672 104.474 82.3792L110.747 93.6189C112.366 96.5309 111.323 100.221 108.432 101.851L122.584 93.9663Z" fill="#00B1CD"/>
<path fill-rule="evenodd" clip-rule="evenodd" d="M87.2521 113.641L75.0789 91.8203L41.7733 110.37L53.9465 132.19C65.0644 125.995 76.1343 119.836 87.2521 113.641Z" fill="#FE5694"/>
</svg>
