<svg width="101" height="41" viewBox="0 0 101 41" fill="none" xmlns="http://www.w3.org/2000/svg">
<path d="M38.447 9.66919V30.6699H46.244C52.6354 30.6699 56.3933 26.7695 56.3933 20.1186C56.3933 13.4677 52.6206 9.66919 46.244 9.66919H38.447ZM42.2642 12.8419H45.8445C50.1055 12.8419 52.5022 15.4323 52.5022 20.1332C52.5022 24.9212 50.135 27.4973 45.8445 27.4973H42.2642V12.8419Z" fill="#181819"/>
<path d="M59.1599 30.6699H62.8438V9.66919H59.1599V30.6699Z" fill="#181819"/>
<path d="M76.3665 26.0565C75.967 27.3372 74.665 28.1812 72.9488 28.1812C70.5373 28.1812 68.9985 26.5222 68.9985 24.0481V23.8297H79.9616V22.6509C79.9616 17.9648 77.1802 14.9231 72.727 14.9231C68.1996 14.9231 65.3295 18.1394 65.3295 23.0148C65.3295 27.9338 68.1701 30.9755 72.8749 30.9755C76.5884 30.9755 79.3403 28.9672 79.8138 26.0565H76.3665ZM72.7417 17.7319C74.8574 17.7319 76.2778 19.2601 76.3517 21.4431H69.0282C69.1762 19.2891 70.6705 17.7319 72.7417 17.7319Z" fill="#181819"/>
<path d="M88.2024 25.1395L91.4573 30.6699H95.4815L90.4956 22.8692L95.5407 15.2432H91.5017L88.3799 20.6571H88.3059L85.1398 15.2432H80.9972L86.0127 22.971L80.9529 30.6699H84.8736L88.1284 25.1395H88.2024Z" fill="#181819"/>
<path opacity="0.5" fill-rule="evenodd" clip-rule="evenodd" d="M15.1599 35.7487C23.5223 35.7432 30.2997 29.0732 30.2997 20.846C30.2997 12.6188 23.5223 5.94871 15.1599 5.94336C21.0851 8.379 25.2487 14.1342 25.2487 20.846C25.2487 27.5577 21.0851 33.3129 15.1599 35.7487Z" fill="#20C0E8"/>
<path d="M0 9.94361C0 7.73447 1.79086 5.9436 4 5.9436H8.83769C17.2047 5.9436 23.9875 12.6157 23.9875 20.8462C23.9875 29.0768 17.2047 35.7489 8.83769 35.7489H4C1.79086 35.7489 0 33.958 0 31.7489V9.94361Z" fill="#20C0E8"/>
</svg>
