<svg width="18" height="18" viewBox="0 0 18 18" fill="none" xmlns="http://www.w3.org/2000/svg">
<path d="M1.28596 1.69415C-0.0593209 3.0915 0.216013 4.57588 0.216013 9.08536C0.216013 12.8302 -0.43737 16.5843 2.98219 17.4681C4.05 17.7427 13.5112 17.7427 14.5776 17.4666C16.0013 17.0993 17.1597 15.9445 17.3181 13.9308C17.3402 13.6498 17.3402 4.52595 17.3174 4.2392C17.149 2.09431 15.8287 0.858158 14.089 0.60779C13.6903 0.550013 13.6104 0.532894 11.5646 0.529327C4.30822 0.532894 2.71756 0.209769 1.28596 1.69415Z" fill="url(#paint0_linear_1016_7122)"/>
<path d="M8.77419 2.76782C6.1842 2.76782 3.72474 2.53742 2.78532 4.94838C2.39729 5.94415 2.45364 7.23736 2.45364 9.08909C2.45364 10.714 2.40157 12.2412 2.78532 13.2291C3.7226 15.6415 6.20203 15.4104 8.77276 15.4104C11.2529 15.4104 13.8101 15.6686 14.7609 13.2291C15.1497 12.2233 15.0926 10.9494 15.0926 9.08909C15.0926 6.61964 15.2288 5.02541 14.0312 3.8285C12.8186 2.61589 11.1787 2.76782 8.77134 2.76782H8.77419ZM8.20783 3.90696C13.6104 3.8984 14.298 3.2978 13.9185 11.6413C13.7837 14.5922 11.5368 14.2684 8.7749 14.2684C3.739 14.2684 3.5942 14.1243 3.5942 9.08623C3.5942 3.9897 3.99365 3.90981 8.20783 3.90553V3.90696ZM12.1481 4.95622C11.7294 4.95622 11.3899 5.29576 11.3899 5.71446C11.3899 6.13317 11.7294 6.4727 12.1481 6.4727C12.5668 6.4727 12.9063 6.13317 12.9063 5.71446C12.9063 5.29576 12.5668 4.95622 12.1481 4.95622ZM8.77419 5.84286C6.98167 5.84286 5.52867 7.29656 5.52867 9.08909C5.52867 10.8816 6.98167 12.3346 8.77419 12.3346C10.5667 12.3346 12.019 10.8816 12.019 9.08909C12.019 7.29656 10.5667 5.84286 8.77419 5.84286ZM8.77419 6.982C11.5596 6.982 11.5632 11.1962 8.77419 11.1962C5.98947 11.1962 5.98519 6.982 8.77419 6.982Z" fill="white"/>
<defs>
<linearGradient id="paint0_linear_1016_7122" x1="1.31879" y1="16.5551" x2="17.2293" y2="2.78476" gradientUnits="userSpaceOnUse">
<stop stop-color="#FFDD55"/>
<stop offset="0.5" stop-color="#FF543E"/>
<stop offset="1" stop-color="#C837AB"/>
</linearGradient>
</defs>
</svg>
