<svg width="20" height="20" viewBox="0 0 20 20" fill="none" xmlns="http://www.w3.org/2000/svg">
<g clip-path="url(#clip0_1016_7127)">
<path d="M18.4661 17.5194V17.5187H18.4704V11.2402C18.4704 8.16875 17.8092 5.80273 14.2184 5.80273C12.4923 5.80273 11.3339 6.75 10.8609 7.64804H10.811V6.08948H7.40643V17.5187H10.9515V11.8594C10.9515 10.3693 11.234 8.92842 13.0793 8.92842C14.8975 8.92842 14.9246 10.6289 14.9246 11.9549V17.5194H18.4661Z" fill="#0077B5"/>
<path d="M1.63371 6.08984H5.18309V17.5191H1.63371V6.08984Z" fill="#0077B5"/>
<path d="M3.40691 0.400391C2.27205 0.400391 1.35118 1.32126 1.35118 2.45612C1.35118 3.59098 2.27205 4.53111 3.40691 4.53111C4.54177 4.53111 5.46264 3.59098 5.46264 2.45612C5.46193 1.32126 4.54106 0.400391 3.40691 0.400391V0.400391Z" fill="#0077B5"/>
</g>
<defs>
<clipPath id="clip0_1016_7127">
<rect width="19.0213" height="19.0213" fill="white" transform="translate(0.400112 0.400391)"/>
</clipPath>
</defs>
</svg>
