<svg width="30" height="30" viewBox="0 0 30 30" fill="none" xmlns="http://www.w3.org/2000/svg">
<path d="M17.4746 14.1423C18.1474 14.7698 18.7334 15.4875 19.2294 16.2942C20.4832 15.515 21.9643 15.0636 23.55 15.0636C24.2216 15.0636 24.8743 15.1451 25.4991 15.2976C24.4945 13.9932 23.2843 13.0275 21.7538 12.3125C20.6063 13.351 19.1167 14.0234 17.4746 14.1423V14.1423Z" fill="#E1A83A"/>
<path d="M15.3869 23.1614C15.3869 20.9021 16.3255 18.8563 17.8356 17.3865C16.9849 15.924 15.8239 14.8222 14.3156 14.0469C13.0728 14.8955 11.5685 15.393 9.94898 15.393C8.33414 15.393 6.8338 14.8984 5.59313 14.0543C2.45077 15.7399 0.474487 19.2479 0.474487 23.2986V29.5127H18.494C16.6027 28.0289 15.3869 25.7334 15.3869 23.1614V23.1614Z" fill="#E1A83A"/>
<path d="M17.6713 7.73366C17.6713 9.37382 17.1485 10.895 16.2598 12.1423L16.3046 12.381C16.5183 12.4063 16.7342 12.419 16.9505 12.419C19.915 12.419 22.3268 10.0269 22.3268 7.0865C22.3268 4.14607 19.915 1.75391 16.9505 1.75391C16.3256 1.75391 15.7137 1.86026 15.1364 2.06534C16.6927 3.46724 17.6713 5.48922 17.6713 7.73366Z" fill="#E1A83A"/>
<path d="M11.3212 13.4838C14.5252 12.7326 16.5085 9.54748 15.7512 6.36963C14.9938 3.19178 11.7826 1.22458 8.5786 1.97578C5.37466 2.72697 3.3913 5.91209 4.14865 9.08995C4.90599 12.2678 8.11726 14.235 11.3212 13.4838Z" fill="#E1A83A"/>
<path d="M29.9513 23.1598C29.9513 19.6577 27.0788 16.8086 23.548 16.8086C20.0173 16.8086 17.1448 19.6577 17.1448 23.1598C17.1448 26.6618 20.0173 29.5109 23.548 29.5109C27.0788 29.511 29.9513 26.6618 29.9513 23.1598V23.1598ZM19.8184 24.0315V22.288H22.6691V19.4605H24.4268V22.288H27.2775V24.0315H24.4268V26.859H22.6691V24.0315H19.8184Z" fill="#E1A83A"/>
</svg>
