<svg width="16" height="16" viewBox="0 0 16 16" fill="none" xmlns="http://www.w3.org/2000/svg">
<g clip-path="url(#clip0_1016_7245)">
<path d="M14.8687 8.00085C14.8687 8.48085 14.5999 8.90325 14.2095 9.12085L10.8815 10.9704L8.06546 8.00085L10.8815 5.03125L14.2095 6.88085C14.5999 7.09845 14.8687 7.52085 14.8687 8.00085Z" fill="#FFC107"/>
<path d="M8.06547 8.00054L1.15347 15.2901C0.923066 15.0597 0.788666 14.7461 0.788666 14.4005V1.60054C0.788666 1.25494 0.923066 0.941338 1.15347 0.710938L8.06547 8.00054Z" fill="#03A9F4"/>
<path d="M8.06547 8L10.8815 10.9696C2.45075 15.5936 2.09747 16.2861 1.15347 15.2896L8.06547 8Z" fill="#F44336"/>
<path d="M10.8815 5.03075L8.06547 8.00035L1.15347 0.710745C1.54899 0.292825 2.18323 0.201305 2.68947 0.480345L10.8815 5.03075Z" fill="#4CAF50"/>
</g>
<defs>
<clipPath id="clip0_1016_7245">
<rect width="15.36" height="15.36" fill="white" transform="translate(0.148666 0.320312)"/>
</clipPath>
</defs>
</svg>
