<svg width="234" height="246" viewBox="0 0 234 246" fill="none" xmlns="http://www.w3.org/2000/svg">
<path d="M2 20.4944V11.0945C2 6.07176 6.07176 2 11.0945 2H24.6767" stroke="#181819" stroke-width="2.48" stroke-linecap="round"/>
<path d="M2 225.615V235.015C2 240.038 6.07176 244.109 11.0945 244.109H24.6767" stroke="#181819" stroke-width="2.48" stroke-linecap="round"/>
<path d="M232 225.615V235.015C232 240.038 227.928 244.109 222.905 244.109H209.323" stroke="#181819" stroke-width="2.48" stroke-linecap="round"/>
<path d="M231.05 20.4944V11.0945C231.05 6.07176 226.978 2 221.955 2H208.373" stroke="#181819" stroke-width="2.48" stroke-linecap="round"/>
<rect x="27.7153" y="33.4297" width="178.571" height="178.571" rx="12" fill="white"/>
<g clip-path="url(#clip0_1604_23328)">
<path d="M89.3781 52.1797H45.5723V95.9855H89.3781V52.1797ZM80.6169 87.2243H54.3334V60.9408H80.6169V87.2243Z" fill="#181819"/>
<path d="M71.8574 69.7031H63.0962V78.4643H71.8574V69.7031Z" fill="#181819"/>
<path d="M141.946 52.1797V95.9855H185.752V52.1797H141.946ZM176.99 87.2243H150.707V60.9408H176.99V87.2243Z" fill="#181819"/>
<path d="M168.231 69.7031H159.47V78.4643H168.231V69.7031Z" fill="#181819"/>
<path d="M45.5723 192.357H89.3781V148.551H45.5723V192.357ZM54.3334 157.312H80.6169V183.595H54.3334V157.312Z" fill="#181819"/>
<path d="M71.8574 166.074H63.0962V174.835H71.8574V166.074Z" fill="#181819"/>
<path d="M133.186 52.1797H115.664V60.9408H133.186V52.1797Z" fill="#181819"/>
<path d="M115.663 87.2249H124.425V78.4637H133.186V69.7026H106.902V60.9414H98.1411V69.7026V74.0831V78.4637H115.663V87.2249Z" fill="#181819"/>
<path d="M106.902 87.2266H98.1411V95.9877H106.902V87.2266Z" fill="#181819"/>
<path d="M133.186 95.9883H124.425V104.749H98.1411V113.511H133.186V95.9883Z" fill="#181819"/>
<path d="M54.3334 131.033H63.0946V122.272H54.3334V104.75H45.5723V139.795H54.3334V131.033Z" fill="#181819"/>
<path d="M71.8574 104.75H63.0962V113.511H71.8574V104.75Z" fill="#181819"/>
<path d="M98.1404 139.795H115.663V131.033H106.902V122.272H89.3793V104.75H80.6181V122.272H71.8569V139.795H80.6181V131.033H84.9987H89.3793H98.1404V139.795Z" fill="#181819"/>
<path d="M133.184 122.27H124.423V139.792H133.184V122.27Z" fill="#181819"/>
<path d="M124.425 148.551H98.1411V157.312H115.663V183.595H98.1411V192.357H124.425V183.595H141.947V174.834H124.425V148.551Z" fill="#181819"/>
<path d="M106.902 166.074H98.1411V174.835H106.902V166.074Z" fill="#181819"/>
<path d="M141.946 148.551H133.185V166.073H141.946V148.551Z" fill="#181819"/>
<path d="M176.991 166.074H150.708V192.358H159.469V174.835H176.991V166.074Z" fill="#181819"/>
<path d="M185.751 183.598H168.229V192.359H185.751V183.598Z" fill="#181819"/>
<path d="M185.752 148.551H176.991V157.312H185.752V148.551Z" fill="#181819"/>
<path d="M150.707 157.315H159.468V131.031H141.946V139.792H150.707V157.315Z" fill="#181819"/>
<path d="M168.229 113.511H159.468V104.75H150.707V113.511H141.946V122.272H176.99V113.511H185.752V104.75H168.229V113.511Z" fill="#181819"/>
<path d="M185.751 131.031H168.229V139.792H185.751V131.031Z" fill="#181819"/>
</g>
<defs>
<clipPath id="clip0_1604_23328">
<rect x="45.5723" y="52.1797" width="140.179" height="140.179" rx="12" fill="white"/>
</clipPath>
</defs>
</svg>
