<svg width="13" height="12" viewBox="0 0 13 12" fill="none" xmlns="http://www.w3.org/2000/svg">
<path d="M11.9462 5.00304C12.0566 4.89545 12.1347 4.75911 12.1717 4.60944C12.2086 4.45978 12.2029 4.30276 12.1553 4.15615C12.1076 4.00955 12.0199 3.8792 11.902 3.77986C11.7841 3.68052 11.6408 3.61616 11.4882 3.59404L8.69822 3.18904C8.63957 3.18061 8.58386 3.15798 8.53593 3.12313C8.48801 3.08827 8.44932 3.04224 8.42322 2.98904L7.17522 0.461041C7.10707 0.322673 7.00154 0.20615 6.87058 0.124668C6.73962 0.0431862 6.58846 0 6.43422 0C6.27998 0 6.12882 0.0431862 5.99786 0.124668C5.8669 0.20615 5.76137 0.322673 5.69322 0.461041L4.44722 2.98804C4.42106 3.04119 4.38235 3.08718 4.33444 3.12202C4.28652 3.15687 4.23085 3.17952 4.17222 3.18804L1.38222 3.59304C1.22946 3.61502 1.0859 3.67935 0.967834 3.77876C0.849768 3.87816 0.761914 4.00866 0.714233 4.15545C0.666552 4.30224 0.660952 4.45945 0.698068 4.60926C0.735183 4.75907 0.81353 4.89549 0.924224 5.00304L2.94322 6.97004C2.98559 7.01134 3.01729 7.06232 3.03558 7.11858C3.05387 7.17485 3.05821 7.23472 3.04822 7.29304L2.57522 10.072C2.55366 10.1901 2.55863 10.3114 2.58976 10.4273C2.62089 10.5432 2.67741 10.6507 2.75522 10.742C2.87754 10.8855 3.04483 10.9834 3.22985 11.0197C3.41487 11.056 3.60674 11.0287 3.77422 10.942L6.26922 9.63004C6.32184 9.6031 6.38011 9.58905 6.43922 9.58905C6.49834 9.58905 6.55661 9.6031 6.60922 9.63004L9.10922 10.942C9.22708 11.0064 9.35896 11.0407 9.49322 11.042C9.6144 11.0414 9.73397 11.0142 9.84351 10.9624C9.95305 10.9106 10.0499 10.8353 10.1272 10.742C10.205 10.6507 10.2616 10.5432 10.2927 10.4273C10.3238 10.3114 10.3288 10.1901 10.3072 10.072L9.82322 7.29304C9.81324 7.23472 9.81757 7.17485 9.83587 7.11858C9.85416 7.06232 9.88585 7.01134 9.92822 6.97004L11.9462 5.00304Z" fill="#C4C4C4"/>
</svg>
