<svg width="18" height="18" viewBox="0 0 18 18" fill="none" xmlns="http://www.w3.org/2000/svg">
<path d="M12.2312 5.39961C11.5982 2.45961 10.2482 0.599609 8.99957 0.599609C7.75097 0.599609 6.40097 2.45961 5.76797 5.39961H12.2312Z" fill="#2E363F"/>
<path d="M5.3996 8.99961C5.39945 9.80229 5.45297 10.6041 5.5598 11.3996H12.4394C12.5462 10.6041 12.5997 9.80229 12.5996 8.99961C12.5997 8.19693 12.5462 7.39514 12.4394 6.59961H5.5598C5.45297 7.39514 5.39945 8.19693 5.3996 8.99961Z" fill="#2E363F"/>
<path d="M5.76797 12.5996C6.40097 15.5396 7.75097 17.3996 8.99957 17.3996C10.2482 17.3996 11.5982 15.5396 12.2312 12.5996H5.76797Z" fill="#2E363F"/>
<path d="M13.46 5.40021H17.24C16.672 4.10767 15.8091 2.96622 14.7203 2.06741C13.6315 1.16861 12.3473 0.537465 10.9706 0.224609C12.1088 1.22601 13.0016 3.07761 13.46 5.40021Z" fill="#2E363F"/>
<path d="M17.6714 6.59961H13.6514C13.7504 7.39578 13.7999 8.19731 13.7996 8.99961C13.7997 9.80192 13.75 10.6035 13.6508 11.3996H17.6708C18.1083 9.82952 18.1083 8.16969 17.6708 6.59961H17.6714Z" fill="#2E363F"/>
<path d="M10.9706 17.7752C12.3475 17.4625 13.632 16.8315 14.721 15.9326C15.81 15.0338 16.6731 13.8923 17.2412 12.5996H13.4612C13.0016 14.9222 12.1088 16.7738 10.9706 17.7752Z" fill="#2E363F"/>
<path d="M4.53919 12.5996H0.759186C1.32726 13.8923 2.19041 15.0338 3.27939 15.9326C4.36836 16.8315 5.65285 17.4625 7.02979 17.7752C5.89039 16.7738 4.99759 14.9222 4.53919 12.5996Z" fill="#2E363F"/>
<path d="M7.0286 0.224609C5.65166 0.537295 4.36717 1.16836 3.2782 2.06717C2.18922 2.96599 1.32607 4.10753 0.757996 5.40021H4.538C4.9976 3.07761 5.8904 1.22601 7.0286 0.224609Z" fill="#2E363F"/>
<path d="M4.19958 8.99961C4.19951 8.1973 4.2492 7.39576 4.34838 6.59961H0.328384C-0.109177 8.16969 -0.109177 9.82952 0.328384 11.3996H4.34838C4.2492 10.6035 4.19951 9.80192 4.19958 8.99961Z" fill="#2E363F"/>
</svg>
