<?xml version="1.0" standalone="no"?>
<!DOCTYPE svg PUBLIC "-//W3C//DTD SVG 1.1//EN" "http://www.w3.org/Graphics/SVG/1.1/DTD/svg11.dtd" >
<svg xmlns="http://www.w3.org/2000/svg">
<metadata>Generated by IcoMoon</metadata>
<defs>
<font id="icomoon" horiz-adv-x="1024">
<font-face units-per-em="1024" ascent="960" descent="-64" />
<missing-glyph horiz-adv-x="1024" />
<glyph unicode="&#x20;" horiz-adv-x="512" d="" />
<glyph unicode="&#xe900;" glyph-name="draft" d="M960 896h-896c-35.264 0-64-28.736-64-64v-352c0-264.704 215.296-480 480-480h64c264.704 0 480 215.296 480 480v352c0 35.264-28.672 64-64 64zM960 480c0-229.376-186.624-416-416-416h-64c-229.376 0-416 186.624-416 416v352h896v-352zM790.592 598.592c-12.48 12.48-32.768 12.48-45.248 0l-233.344-233.344-233.408 233.344c-12.48 12.48-32.768 12.48-45.248 0s-12.48-32.768 0-45.248l256-256c6.272-6.208 14.464-9.344 22.656-9.344s16.384 3.136 22.592 9.344l256 256c12.48 12.48 12.48 32.768 0 45.248z" />
<glyph unicode="&#xe901;" glyph-name="bell" d="M190.101 367.787l-24.387 20.719zM227.616 454.891l31.796-3.601zM796.382 454.891l31.799 3.601zM833.899 367.787l24.388 20.719zM781.67 584.788l-31.799-3.602zM242.331 584.788l-31.797 3.602zM775.249 266.667h-526.496v-64h526.496zM749.871 581.186l14.716-129.896 63.595 7.202-14.716 129.898zM259.413 451.29l14.715 129.896-63.593 7.204-14.714-129.898zM214.488 347.063c24.945 29.363 40.563 65.715 44.925 104.226l-63.593 7.202c-2.95-26.044-13.497-50.441-30.106-69.986zM764.587 451.29c4.365-38.511 19.981-74.863 44.924-104.226l48.777 41.442c-16.61 19.546-27.157 43.942-30.106 69.986zM248.753 266.667c-37.837 0-61.904 47.868-34.265 80.397l-48.774 41.442c-60.545-71.266-13.041-185.839 83.038-185.839zM775.249 202.667c96.077 0 143.582 114.573 83.038 185.839l-48.777-41.442c27.639-32.529 3.575-80.397-34.261-80.397zM813.466 588.39c-17.715 156.368-146.675 275.61-301.466 275.61v-64c120.755 0 223.654-93.311 237.871-218.814zM274.128 581.186c14.217 125.503 117.116 218.814 237.872 218.814v64c-154.79 0-283.752-119.242-301.466-275.61zM669.965 138.103c6.204 16.55-2.185 34.991-18.735 41.195s-34.991-2.185-41.195-18.735zM413.965 160.563c-6.202 16.55-24.646 24.939-41.195 18.735s-24.937-24.644-18.735-41.195zM610.035 160.563c-13.769-36.74-51.759-64.563-98.035-64.563v-64c71.915 0 134.468 43.413 157.965 106.103zM512 96c-46.276 0-84.267 27.823-98.035 64.563l-59.93-22.46c23.494-62.69 86.050-106.103 157.965-106.103z" />
<glyph unicode="&#xe902;" glyph-name="message" d="M32.001-64c-8.343 0-16.532 3.281-22.626 9.375-8.625 8.625-11.594 21.437-7.657 32.969l70.906 207.436c-47.562 79.533-72.625 169.844-72.625 262.219 0 282.312 229.688 512 512 512s512-229.688 512-512-229.688-512-512-512c-92.375 0-182.688 25.063-262.219 72.625l-207.436-70.904c-3.375-1.156-6.876-1.719-10.343-1.721zM253.75 75.814c6.032 0 12.032-1.719 17.25-5.032 72.345-46.312 155.687-70.782 241-70.782 247.030 0 448 200.968 448 448s-200.97 448-448 448-448-200.968-448-448c0-85.313 24.468-168.655 70.782-241 5.25-8.219 6.468-18.374 3.313-27.593l-54.719-160.030 160.030 54.719c3.375 1.156 6.874 1.719 10.343 1.719z" />
<glyph unicode="&#xe903;" glyph-name="remove" d="M96 736h64v-655.36c0.181-62.136 50.504-112.459 112.623-112.64h480.017c61.586 0.9 111.186 50.949 111.36 112.623v655.377h64c17.673 0 32 14.327 32 32s-14.327 32-32 32v0h-224v64c0 0.006 0 0.013 0 0.020 0 34.784-27.749 63.086-62.317 63.978l-0.083 0.002h-257.6c-35.346 0-64-28.654-64-64v0-64h-224c-17.673 0-32-14.327-32-32s14.327-32 32-32v0zM384 864h256v-64h-256zM320 736h480v-655.36c0-26.863-21.777-48.64-48.64-48.64v0h-480c-26.307 0.714-47.36 22.21-47.36 48.623 0 0.006 0 0.012 0 0.018v-0.001 655.36zM405.76 160c17.673 0 32 14.327 32 32v0 384c0 17.673-14.327 32-32 32s-32-14.327-32-32v0-384c0-17.673 14.327-32 32-32v0zM618.24 160c17.673 0 32 14.327 32 32v0 384c0 17.673-14.327 32-32 32s-32-14.327-32-32v0-384c0-17.673 14.327-32 32-32v0z" />
<glyph unicode="&#xe904;" glyph-name="imges" d="M816.64 32h-609.28c-61.502 0-111.36 49.858-111.36 111.36v0 609.28c0 61.502 49.858 111.36 111.36 111.36v0h609.28c61.502 0 111.36-49.858 111.36-111.36v0-609.28c0-61.502-49.858-111.36-111.36-111.36v0zM207.36 800c-26.156 0-47.36-21.204-47.36-47.36v0-609.28c0-26.156 21.204-47.36 47.36-47.36h609.28c26.156 0 47.36 21.204 47.36 47.36v0 609.28c0 26.156-21.204 47.36-47.36 47.36v0zM128 157.44c-9.685 0.031-18.367 4.304-24.288 11.056l-0.032 0.037c-4.726 5.542-7.601 12.788-7.601 20.705 0 9.823 4.426 18.612 11.393 24.482l0.048 0.040 218.453 184.32c14.752 12.513 34.007 20.122 55.039 20.122 23.475 0 44.737-9.479 60.165-24.819l103.676-103.676c3.705-3.183 8.559-5.121 13.867-5.121s10.162 1.938 13.895 5.145l-0.028-0.024 100.693 72.96c14.243 11.051 32.37 17.715 52.053 17.715s37.811-6.665 52.248-17.86l-0.195 0.145 138.667-110.507c7.42-5.947 12.131-15.010 12.131-25.173 0-17.775-14.409-32.184-32.184-32.184-7.612 0-14.607 2.642-20.117 7.060l0.063-0.049-138.24 110.933c-3.561 2.763-8.092 4.429-13.013 4.429s-9.453-1.666-13.062-4.465l0.049 0.036-100.693-78.080c-14.091-10.673-31.915-17.096-51.239-17.096-23.456 0-44.701 9.464-60.126 24.781l0.005-0.005-103.68 105.813c-3.767 3.41-8.786 5.496-14.293 5.496s-10.527-2.087-14.312-5.513l0.018 0.016-218.88-183.467c-5.314-4.515-12.253-7.26-19.833-7.26-0.227 0-0.454 0.002-0.681 0.007l0.034-0.001zM640 458.667c-64.801 0-117.333 52.532-117.333 117.333s52.532 117.333 117.333 117.333c64.801 0 117.333-52.532 117.333-117.333v0c0-64.801-52.532-117.333-117.333-117.333v0zM640 629.333c-29.455 0-53.333-23.878-53.333-53.333s23.878-53.333 53.333-53.333c29.455 0 53.333 23.878 53.333 53.333v0c0 29.455-23.878 53.333-53.333 53.333v0z" />
<glyph unicode="&#xe905;" glyph-name="nright" d="M358.086 242.238c-12.865 0-25.729 4.923-35.53 14.724l-307.815 307.824c-19.656 19.647-19.656 51.413 0 71.060 19.647 19.647 51.404 19.647 71.060 0l272.285-272.285 580.118 580.108c19.647 19.647 51.404 19.647 71.060 0 19.647-19.656 19.647-51.413 0-71.069l-615.638-615.638c-9.8-9.8-22.674-14.724-35.539-14.724z" />
<glyph unicode="&#xe906;" glyph-name="ads" d="M896 874.667h-787.692c-36.201 0-65.641-29.44-65.641-65.641v-722.050c0-36.203 29.44-65.643 65.641-65.643h787.692c36.203 0 65.643 29.44 65.643 65.643v722.050c0 36.201-29.44 65.641-65.643 65.641zM108.308 809.026h787.692v-131.282h-787.692v131.282zM108.308 86.976v525.126h787.692l0.034-525.126h-787.727zM580.365 576.784c-12.309 5.087-26.389 2.298-35.776-7.122-56.021-56.023-143.031-56.023-206.538-56.023h-49.231c-63.343 0-114.872-51.529-114.872-114.871 0-59.669 45.916-108.275 104.172-113.792l27.766-138.795c3.512-17.66 20.71-29.312 38.63-25.732 17.789 3.546 29.309 20.838 25.731 38.63l-24.976 124.817c62.786-0.068 145.327-2.005 199.318-55.996 9.387-9.387 23.467-12.207 35.776-7.121 12.241 5.056 20.25 17.037 20.25 30.293v295.386c0 13.26-8.009 25.239-20.25 30.326v0zM305.23 349.534h-16.41c-27.142 0-49.231 22.089-49.231 49.233 0 27.14 22.088 49.229 49.231 49.229h16.41v-98.462zM534.972 315.14c-53.986 27.959-114.148 33.114-164.101 34.099v99.051c49.953 0.986 110.115 6.14 164.101 34.103v-167.253zM830.362 398.767c0-18.116-14.703-32.819-32.823-32.819h-65.638c-18.116 0-32.823 14.703-32.823 32.819s14.707 32.823 32.823 32.823h65.638c18.121 0 32.823-14.707 32.823-32.823zM670.652 497.225c-9.058 15.689-3.674 35.776 12.015 44.833l56.845 32.82c15.654 9.091 35.742 3.676 44.834-12.012 9.058-15.689 3.674-35.775-12.015-44.833l-56.845-32.819c-15.556-8.994-35.708-3.81-44.834 12.011zM784.346 234.667c-9.122-15.787-29.274-21.005-44.834-12.011l-56.845 32.819c-15.718 9.058-21.069 29.146-12.011 44.834 9.024 15.723 29.111 21.103 44.834 12.011l56.845-32.819c15.689-9.058 21.069-29.146 12.011-44.834zM239.589 743.388c0-18.117-14.704-32.82-32.82-32.82s-32.821 14.704-32.821 32.82c0 18.117 14.704 32.82 32.821 32.82s32.82-14.703 32.82-32.82zM338.053 743.388c0-18.117-14.704-32.82-32.821-32.82s-32.82 14.704-32.82 32.82c0 18.117 14.704 32.82 32.82 32.82s32.821-14.703 32.821-32.82zM436.51 743.388c0-18.117-14.703-32.82-32.82-32.82s-32.82 14.704-32.82 32.82c0 18.117 14.704 32.82 32.82 32.82s32.82-14.703 32.82-32.82z" />
<glyph unicode="&#xe907;" glyph-name="Category" d="M341.333 490.667h-170.667c-70.692 0-128 57.308-128 128v0 170.667c0 70.692 57.308 128 128 128v0h170.667c70.692 0 128-57.308 128-128v0-170.667c0-70.692-57.308-128-128-128v0zM170.667 832c-23.564 0-42.667-19.103-42.667-42.667v0-170.667c0-23.564 19.103-42.667 42.667-42.667v0h170.667c23.564 0 42.667 19.103 42.667 42.667v0 170.667c0 23.564-19.103 42.667-42.667 42.667v0zM853.333 490.667h-170.667c-70.692 0-128 57.308-128 128v0 170.667c0 70.692 57.308 128 128 128v0h170.667c70.692 0 128-57.308 128-128v0-170.667c0-70.692-57.308-128-128-128v0zM682.667 832c-23.564 0-42.667-19.103-42.667-42.667v0-170.667c0-23.564 19.103-42.667 42.667-42.667v0h170.667c23.564 0 42.667 19.103 42.667 42.667v0 170.667c0 23.564-19.103 42.667-42.667 42.667v0zM341.333-21.333h-170.667c-70.692 0-128 57.308-128 128v0 170.667c0 70.692 57.308 128 128 128v0h170.667c70.692 0 128-57.308 128-128v0-170.667c0-70.692-57.308-128-128-128v0zM170.667 320c-23.564 0-42.667-19.103-42.667-42.667v0-170.667c0-23.564 19.103-42.667 42.667-42.667v0h170.667c23.564 0 42.667 19.103 42.667 42.667v0 170.667c0 23.564-19.103 42.667-42.667 42.667v0zM853.333-21.333h-170.667c-70.692 0-128 57.308-128 128v0 170.667c0 70.692 57.308 128 128 128v0h170.667c70.692 0 128-57.308 128-128v0-170.667c0-70.692-57.308-128-128-128v0zM682.667 320c-23.564 0-42.667-19.103-42.667-42.667v0-170.667c0-23.564 19.103-42.667 42.667-42.667v0h170.667c23.564 0 42.667 19.103 42.667 42.667v0 170.667c0 23.564-19.103 42.667-42.667 42.667v0z" />
<glyph unicode="&#xe908;" glyph-name="minus2" d="M988.16 494.72v-93.389h-956.586v93.389h956.586z" />
<glyph unicode="&#xe909;" glyph-name="plus2" d="M567.263 901.76h-114.79v-402.4h-420.898v-109.732h420.898v-402.301h114.79v402.301h420.897v109.732h-420.897v402.4z" />
<glyph unicode="&#xe90a;" glyph-name="share" d="M812 295.999c-59.282 0-111.521-29.16-144.333-73.507l-283.688 145.262c4.71 16.053 8.020 32.689 8.020 50.247 0 23.812-4.882 46.45-13.316 67.273l296.888 178.655c33.044-38.776 81.605-63.928 136.428-63.928 99.257 0 180 80.742 180 180s-80.742 180-180 180c-99.257 0-180-80.742-180-180 0-22.874 4.71-44.572 12.524-64.716l-297.775-179.181c-33.012 37.625-80.876 61.896-134.75 61.896-99.258 0-180-80.742-180-179.999s80.742-180 180-180c60.26 0 113.382 30.015 146.070 75.611l282.753-144.79c-5.211-16.813-8.822-34.324-8.822-52.823 0-99.257 80.742-180 180-180s180 80.742 180 180c0 99.257-80.742 180-180 180z" />
<glyph unicode="&#xe90b;" glyph-name="time" d="M512.005-56.213c-278.494 0-504.243 225.75-504.243 504.246 0 278.491 225.749 504.24 504.243 504.24 278.491 0 504.241-225.749 504.241-504.24 0-278.495-225.75-504.246-504.241-504.246zM512.005 44.637c106.985 0 209.59 42.501 285.24 118.151 75.655 75.65 118.151 178.255 118.151 285.245 0 106.984-42.496 209.589-118.151 285.24-75.65 75.651-178.255 118.151-285.24 118.151-106.988 0-209.592-42.5-285.244-118.151s-118.151-178.256-118.151-285.24c0-106.989 42.501-209.594 118.151-285.245s178.256-118.151 285.244-118.151zM562.427 448.033h201.695v-100.85h-302.543v352.969h100.848v-252.119z" />
<glyph unicode="&#xe90c;" glyph-name="promote" d="M993.987 598h-121.994c-16.584 0-30.003-13.418-30.003-30s13.42-30 30.003-30h121.994c16.584 0 30.003 13.418 30.003 30s-13.42 30-30.003 30zM1020.846 761.42c-7.414 14.824-25.431 20.8-40.253 13.418l-121.999-60c-14.822-7.412-20.828-25.43-13.42-40.254 7.373-14.698 25.283-20.852 40.253-13.418l121.999 60c14.822 7.412 20.828 25.43 13.42 40.254zM1007.427 414.858l-121.999 60c-14.822 7.324-32.783 1.436-40.253-13.418-7.409-14.824-1.403-32.842 13.42-40.254l121.999-60.001c14.971-7.434 32.881-1.28 40.253 13.42 7.409 14.822 1.403 32.841-13.42 40.253zM721.992 898c-33.137 0-60.001-26.862-60.001-60v-599.992c0-33.137 26.865-60.001 60.001-60.001s60.001 26.865 60.001 60.001v599.992c-0.005 33.14-26.865 60-60.001 60zM361.076 263.45c-2.278-14.3-14.142-25.452-29.080-25.452h-36.738c-2.586 0-4.896-0.855-7.288-1.464l-4.886 52.91-25.678 8.556h-157.718l25.004-231.854c12.266-48.957 61.818-77.425 109.128-65.449 48.134 12.012 77.52 60.964 66.27 104.617l-6.75 73.073c0.666-0.046 1.234-0.384 1.916-0.384h36.74c41.386 0 75.974 28.227 86.438 66.324l-57.358 19.123zM301.996 729.606v-383.223l299.994-99.994v583.21l-299.994-99.994zM89.998 718c-49.626 0-89.998-40.372-89.998-89.998v-179.998c0-49.628 40.372-89.998 89.998-89.998h151.998v359.994h-151.998z" />
<glyph unicode="&#xe90d;" glyph-name="send" d="M1002.795 447.16l-950.835 472.648c-15.14 7.405-33.206 2.993-43.738-11.028-10.605-14.022-10.971-33.952-0.878-48.368l312.678-449.015-312.678-449.020c-10.093-14.414-9.728-34.423 0.805-48.366 7.095-9.531 17.7-14.651 28.452-14.651 5.193 0 10.386 1.18 15.286 3.621l950.835 472.65c13.017 6.459 21.283 20.402 21.283 35.766 0 15.36-8.266 29.303-21.209 35.762z" />
<glyph unicode="&#xe90e;" glyph-name="camara" d="M955.732 726.742h-186.596l-64.852 117.191c-6.102 10.567-17.38 17.073-29.58 17.067h-324.269c-12.202 0.007-23.48-6.5-29.582-17.067l-65.991-117.191h-186.596c-37.702 0-68.267-30.565-68.267-68.266v-555.238c0-37.702 30.564-68.264 68.267-68.264h887.465c37.702 0 68.268 30.562 68.268 68.264v555.238c0 37.702-30.566 68.266-68.268 68.266zM512 165.818c-139.5 0-252.587 113.087-252.587 252.586s113.087 252.586 252.587 252.586c139.501 0 252.588-113.086 252.588-252.586-0.624-139.239-113.347-251.963-252.588-252.586zM512 292.143c69.748 0 126.292 56.543 126.292 126.291 0 69.75-56.543 126.293-126.292 126.293-69.752 0-126.296-56.543-126.296-126.293 0-69.748 56.543-126.291 126.296-126.291z" />
<glyph unicode="&#xe90f;" glyph-name="close" d="M605.813 447.16l398.725 398.737c25.948 25.936 25.948 67.872 0 93.808-25.936 25.936-67.871 25.936-93.807 0l-398.737-398.737-398.725 398.737c-25.948 25.936-67.872 25.936-93.808 0-25.948-25.936-25.948-67.871 0-93.808l398.726-398.737-398.726-398.737c-25.948-25.936-25.948-67.874 0-93.81 12.926-12.938 29.921-19.436 46.904-19.436s33.966 6.498 46.904 19.436l398.725 398.74 398.737-398.74c12.938-12.938 29.921-19.436 46.905-19.436s33.965 6.498 46.902 19.436c25.948 25.936 25.948 67.874 0 93.81l-398.725 398.737z" />
<glyph unicode="&#xe910;" glyph-name="plus" d="M512 960c-282.334 0-512-229.666-512-512s229.666-512 512-512c282.334 0 512 229.707 512 512s-229.666 512-512 512zM512 15.319c-238.55 0-432.682 194.092-432.682 432.681s194.132 432.682 432.682 432.682c238.551 0 432.681-194.092 432.681-432.682 0-238.589-194.092-432.681-432.681-432.681zM710.301 491.23h-158.635v158.635c0 21.892-17.729 39.66-39.66 39.66-21.934 0-39.66-17.768-39.66-39.66v-158.635h-158.637c-21.932 0-39.66-17.77-39.66-39.66 0-21.893 17.728-39.663 39.66-39.663h158.637v-158.635c0-21.893 17.725-39.66 39.66-39.66 21.931 0 39.66 17.766 39.66 39.66v158.635h158.635c21.934 0 39.66 17.77 39.66 39.663 0 21.89-17.725 39.66-39.66 39.66z" />
<glyph unicode="&#xe911;" glyph-name="minus" d="M512 960c-282.334 0-512-229.666-512-512s229.666-512 512-512c282.334 0 512 229.707 512 512s-229.666 512-512 512zM512 15.319c-238.55 0-432.682 194.092-432.682 432.681s194.132 432.682 432.682 432.682c238.551 0 432.681-194.092 432.681-432.682 0-238.589-194.092-432.681-432.681-432.681zM327.677 488.96h389.12c22.622 0 40.96-18.338 40.96-40.96s-18.338-40.96-40.96-40.96h-389.12c-22.622 0-40.96 18.338-40.96 40.96s18.338 40.96 40.96 40.96z" />
<glyph unicode="&#xe912;" glyph-name="mark" d="M512 640c-105.858 0-192-86.142-192-192 0-105.854 86.142-192 192-192 105.854 0 192 86.146 192 192 0 105.858-86.146 192-192 192zM512 320c-70.591 0-128 57.409-128 128s57.409 128 128 128c70.591 0 128-57.409 128-128s-57.409-128-128-128zM992 480h-97.601c-15.486 186.24-164.161 334.912-350.399 350.4v97.6c0 17.664-14.336 32-32 32s-32-14.336-32-32v-97.6c-186.24-15.488-334.912-164.224-350.4-350.4h-97.6c-17.664 0-32-14.336-32-32s14.336-32 32-32h97.6c15.488-186.238 164.16-334.913 350.4-350.399v-97.601c0-17.664 14.336-32 32-32s32 14.336 32 32v97.601c186.238 15.486 334.913 164.161 350.399 350.399h97.601c17.664 0 32 14.271 32 32 0 17.599-14.336 32-32 32zM512 128c-176.448 0-320 143.551-320 320 0 176.448 143.552 320 320 320 176.449 0 320-143.552 320-320 0-176.449-143.551-320-320-320z" />
<glyph unicode="&#xe913;" glyph-name="calendar-fill" d="M752 859.429h-205.714v34.286c0 18.926-15.36 34.286-34.286 34.286s-34.286-15.36-34.286-34.286v-34.286h-205.714v34.286c0 18.926-15.36 34.286-34.286 34.286s-34.286-15.36-34.286-34.286v-34.286h-68.571c-56.777 0-102.857-46.080-102.857-102.857v-685.714c0-56.777 46.080-102.857 102.857-102.857h754.286c56.777 0 102.857 46.080 102.857 102.857v685.714c0 56.777-46.080 102.857-102.857 102.857h-68.571v34.286c0 18.926-15.36 34.286-34.286 34.286s-34.286-15.36-34.286-34.286v-34.286zM923.429 585.143v-514.286c0-18.926-15.36-34.286-34.286-34.286h-754.286c-18.926 0-34.286 15.36-34.286 34.286v514.286h822.857zM820.571 790.857v-34.286c0-18.926-15.36-34.286-34.286-34.286s-34.286 15.36-34.286 34.286v34.286h-205.714v-34.286c0-18.926-15.36-34.286-34.286-34.286s-34.286 15.36-34.286 34.286v34.286h-205.714v-34.286c0-18.926-15.36-34.286-34.286-34.286s-34.286 15.36-34.286 34.286v34.286h-68.571c-18.926 0-34.286-15.36-34.286-34.286v-102.857h822.857v102.857c0 18.926-15.36 34.286-34.286 34.286h-68.571z" />
<glyph unicode="&#xe914;" glyph-name="right" d="M802.145 447.985c0.051-8.986-1.674-17.889-5.069-26.209-3.4-8.315-8.402-15.882-14.73-22.262l-409.6-409.6c-12.855-12.856-30.289-20.076-48.469-20.076s-35.615 7.219-48.47 20.076c-12.855 12.856-20.076 30.29-20.076 48.471 0 18.176 7.222 35.615 20.076 48.466l361.812 361.134-361.129 361.129c-11.184 13.060-17.028 29.858-16.365 47.039s7.786 33.479 19.944 45.637c12.158 12.158 28.456 19.28 45.637 19.944s33.98-5.18 47.039-16.364l409.6-409.6c12.611-12.716 19.722-29.878 19.799-47.785z" />
<glyph unicode="&#xe915;" glyph-name="left" d="M230.401 448.016c-0.052 8.985 1.67 17.891 5.067 26.208s8.403 15.882 14.73 22.261l409.599 409.6c12.855 12.855 30.289 20.077 48.469 20.077s35.613-7.222 48.47-20.077c12.856-12.855 20.076-30.29 20.076-48.47s-7.219-35.614-20.076-48.469l-361.812-361.131 361.132-361.13c11.182-13.061 17.024-29.86 16.364-47.037-0.666-17.183-7.788-33.48-19.948-45.64-12.155-12.16-28.453-19.282-45.635-19.942-17.181-0.666-33.979 5.181-47.039 16.364l-409.599 409.6c-12.612 12.713-19.722 29.875-19.797 47.786z" />
<glyph unicode="&#xe916;" glyph-name="calendarhistory" d="M665.001 438.999c-19.886 0-35.999-16.113-35.999-35.999v-108.81c0-10.624 4.695-20.705 12.831-27.556l57.677-48.507c6.748-5.673 14.976-8.443 23.153-8.443 10.26 0 20.449 4.357 27.571 12.826 12.795 15.222 10.834 37.924-4.383 50.719l-44.851 37.724v92.047c0 19.886-16.118 35.999-35.999 35.999zM393.2 581.2c19.884 0 36-16.116 36-36v-55.392c57.699 69.806 143.979 111.375 236.61 111.375 169.277 0 306.99-137.714 306.99-306.993 0-169.277-138.081-306.99-307.799-306.99-46.377 0-92.221 10.45-133.734 30.341-0.707 0.317-1.408 0.625-2.094 0.978-0.195 0.102-0.384 0.236-0.573 0.343-4.844 2.381-9.651 4.859-14.372 7.501-17.351 9.702-23.553 31.642-13.843 48.993 9.703 17.357 31.635 23.557 48.987 13.855 35.108-19.635 75.085-30.013 115.63-30.013 130.022 0 235.802 105.421 235.802 234.993s-105.416 234.993-234.993 234.993c-73.83 0-142.392-34.502-186.477-91.981h56.066c19.886 0 36.004-16.118 36.004-36.004 0-19.881-16.118-35.999-36.004-35.999h-70.198c-59.555 0-108 48.445-108 108.001v72c0 19.884 16.116 36 36 36zM346.4 59.197h-151.2c-39.698 0-72 32.302-72 72.003v561.6c0 39.698 32.302 72 72 72h45v-36c0-19.885 16.115-36 36-36s36 16.116 36 36v36h162v-36c0-19.885 16.116-36 36-36s36.002 16.116 36.002 36v36h163.799v-36c0-19.885 16.113-36 35.999-36s35.999 16.116 35.999 36v36h46.802c39.7 0 72.003-32.302 72.003-72 0-19.885 16.113-36 35.999-36 19.881 0 35.999 16.116 35.999 36 0 79.404-64.594 144-144 144h-46.802v36c0 19.884-16.113 36-35.999 36s-35.999-16.116-35.999-36v-36h-163.799v36c0 19.884-16.118 36-36.002 36s-36-16.116-36-36v-36h-162v36c0 19.884-16.116 36-36 36s-36-16.116-36-36v-36h-45c-79.404 0-144-64.596-144-144v-561.6c0-79.406 64.596-144 144-144h151.2c19.885 0 36 16.118 36 35.999 0 19.886-16.116 35.999-36 35.999z" />
<glyph unicode="&#xe917;" glyph-name="calendar" d="M768 857.6h204.8c13.579 0 26.601-5.394 36.204-14.996s14.996-22.625 14.996-36.204v-819.2c0-13.579-5.393-26.601-14.996-36.204s-22.625-14.996-36.204-14.996h-921.6c-13.579 0-26.602 5.393-36.204 14.996s-14.996 22.625-14.996 36.204v819.2c0 13.579 5.394 26.602 14.996 36.204s22.625 14.996 36.204 14.996h204.8v102.4h102.4v-102.4h307.2v102.4h102.4v-102.4zM921.6 448h-819.2v-409.6h819.2v409.6zM665.6 755.2h-307.2v-102.4h-102.4v102.4h-153.6v-204.8h819.2v204.8h-153.6v-102.4h-102.4v102.4zM204.8 345.6h102.4v-102.4h-102.4v102.4zM460.8 345.6h102.4v-102.4h-102.4v102.4zM716.8 345.6h102.4v-102.4h-102.4v102.4z" />
<glyph unicode="&#xe918;" glyph-name="left-arrow" d="M962.453 507.447c-4.19 0.678-8.431 0.994-12.676 0.939h-722.409l15.752 7.326c15.398 7.287 29.405 17.207 41.396 29.306l202.584 202.582c26.679 25.469 31.164 66.441 10.62 97.079-23.902 32.647-69.747 39.735-102.397 15.83-2.638-1.932-5.145-4.039-7.501-6.306l-366.333-366.332c-28.629-28.599-28.654-74.987-0.057-103.616 0.018-0.017 0.039-0.038 0.057-0.060l366.333-366.332c28.652-28.57 75.039-28.506 103.613 0.145 2.249 2.253 4.352 4.655 6.285 7.181 20.544 30.639 16.060 71.612-10.62 97.079l-202.218 202.948c-10.749 10.761-23.109 19.785-36.633 26.743l-21.98 9.89h719.476c37.431-1.391 70.268 24.755 77.299 61.542 6.477 39.945-20.651 77.572-60.591 84.053z" />
<glyph unicode="&#xe919;" glyph-name="downarrow" d="M13.633 713.64c18.177 18.177 47.648 18.177 65.825 0l432.542-432.542 432.538 432.542c18.181 18.177 47.653 18.177 65.834 0 18.171-18.177 18.171-47.648 0-65.825l-465.459-465.454c-18.177-18.178-47.648-18.178-65.825 0l-465.455 465.454c-18.177 18.177-18.177 47.648 0 65.825z" />
<glyph unicode="&#xe91a;" glyph-name="logout" d="M511.997-64c107.745 0.102 212.17 37.274 295.745 105.273s141.21 162.679 163.231 268.151c22.016 105.468 7.071 215.302-42.32 311.057s-130.219 171.602-228.927 214.803c-5.137 2.276-10.678 3.513-16.299 3.641s-11.213-0.856-16.452-2.895c-5.234-2.039-10.018-5.094-14.074-8.989s-7.299-8.552-9.552-13.705c-2.247-5.152-3.453-10.699-3.556-16.32-0.097-5.621 0.916-11.207 2.987-16.435 2.065-5.228 5.143-9.997 9.062-14.031 3.914-4.034 8.59-7.254 13.75-9.476 80.856-35.288 147.098-97.34 187.58-175.723 40.488-78.382 52.747-168.314 34.725-254.675-18.028-86.357-65.234-163.88-133.695-219.523s-153.987-86.022-242.207-86.022c-88.22 0-173.751 30.379-242.208 86.022s-115.668 133.166-133.692 219.523c-18.024 86.361-5.763 176.293 34.722 254.675s106.723 140.435 187.579 175.723c5.164 2.222 9.838 5.442 13.755 9.476s6.996 8.802 9.062 14.031c2.067 5.228 3.081 10.813 2.982 16.435s-1.307 11.167-3.556 16.32c-2.249 5.153-5.494 9.81-9.548 13.705s-8.839 6.95-14.078 8.989c-5.239 2.039-10.829 3.023-16.45 2.895s-11.16-1.365-16.301-3.641c-98.703-43.201-179.536-119.048-228.927-214.803s-64.332-205.589-42.314-311.057c22.017-105.472 79.653-200.152 163.229-268.151s188.002-105.17 295.745-105.273zM512 533.333c11.316 0 22.168 4.495 30.17 12.497s12.497 18.854 12.497 30.17v341.333c0 11.316-4.495 22.168-12.497 30.17s-18.854 12.497-30.17 12.497c-11.316 0-22.168-4.495-30.17-12.497s-12.497-18.854-12.497-30.17v-341.333c0-11.316 4.495-22.168 12.497-30.17s18.854-12.497 30.17-12.497z" />
<glyph unicode="&#xe91b;" glyph-name="edit" d="M841.131 448.003c-20.196 0-36.574-16.373-36.574-36.572v-365.71c0-20.196-16.373-36.568-36.568-36.568h-658.276c-20.198 0-36.572 16.373-36.572 36.568v731.42c0 20.198 16.374 36.572 36.572 36.572h438.851c20.198 0 36.572 16.373 36.572 36.572s-16.374 36.569-36.572 36.569h-438.851c-60.593 0-109.713-49.12-109.713-109.712v-731.42c0-60.592 49.12-109.71 109.713-109.71h658.276c60.592 0 109.716 49.118 109.716 109.71v365.712c0 20.196-16.373 36.569-36.574 36.569zM983.006 918.983c-26.26 26.263-61.872 41.014-99.009 41.009-37.16 0.107-72.812-14.67-98.998-41.033l-481.715-481.674c-3.996-4.026-7.011-8.92-8.813-14.299l-73.141-219.427c-6.383-19.16 3.977-39.868 23.141-46.251 3.718-1.24 7.611-1.872 11.529-1.877 3.925 0.006 7.828 0.637 11.556 1.866l219.426 73.142c5.389 1.798 10.286 4.83 14.299 8.846l481.71 481.715c54.676 54.668 54.682 143.308 0.017 197.982zM931.282 772.677l-475.426-475.421-142.041-47.434 47.285 141.86 475.604 475.42c26.146 26.096 68.5 26.053 94.595-0.094 12.464-12.491 19.49-29.4 19.547-47.046 0.040-17.74-7.003-34.763-19.564-47.286z" />
<glyph unicode="&#xe91c;" glyph-name="view" d="M1017.492 472.305c-9.148 15.271-227.118 373.917-505.498 373.917-278.382 0-496.358-358.646-505.496-373.903-8.664-14.487-8.664-34.137 0-48.624 9.138-15.271 227.114-373.918 505.496-373.918s496.35 358.649 505.498 373.905c8.676 14.485 8.676 34.149 0 48.622zM511.994 132.17c-205.058 0-382.66 238.040-435.234 315.858 52.506 77.888 229.736 315.804 435.234 315.804 205.051 0 382.641-237.999 435.235-315.86-52.508-77.887-229.734-315.802-435.235-315.802zM512 675.556c-125.472 0-227.556-102.084-227.556-227.556 0-125.474 102.084-227.556 227.556-227.556 125.474 0 227.556 102.081 227.556 227.556 0 125.472-102.081 227.556-227.556 227.556zM512 296.3c-83.652 0-151.702 68.050-151.702 151.7s68.052 151.702 151.702 151.702c83.649 0 151.7-68.052 151.7-151.702s-68.045-151.7-151.7-151.7z" />
<glyph unicode="&#xe91d;" glyph-name="search" d="M412.127 148.529c91.529-0.004 180.437 29.315 252.645 83.317l272.417-261.558c20.349-18.87 52.777-18.33 72.43 1.208 19.173 19.059 19.173 49.279 0 68.338l-272.417 261.558c139.559 172.491 107.061 420.946-72.589 554.943s-438.416 102.794-577.975-69.697c-139.559-172.49-107.060-420.947 72.59-554.944 72.325-53.944 161.314-83.21 252.899-83.165zM193.244 754.129c120.888 116.072 316.884 116.074 437.778 0.005 120.889-116.070 120.889-304.257 0.004-420.33-120.889-116.072-316.887-116.072-437.778-0.004-0.002 0.004-0.002 0.004-0.004 0.004-120.888 115.225-121.6 302.726-1.593 418.796 0.53 0.511 1.061 1.020 1.593 1.529z" />
<glyph unicode="&#xe91e;" glyph-name="scan" d="M864 656v144h-144c-63.411 0-63.526 96 0 96h161.28c20.873-0.023 40.879-8.324 55.637-23.082s23.057-34.767 23.083-55.637v-161.281c0-63.424-96-63.504-96 0zM64 656v161.281c0.023 20.87 8.324 40.879 23.082 55.637s34.767 23.058 55.637 23.082h161.281c63.411 0 63.524-96 0-96h-144v-144c0-63.424-96-63.504-96 0zM881.28 0h-161.28c-63.411 0-63.526 96 0 96h144v144c0 63.424 96 63.505 96 0v-161.28c-0.026-20.873-8.324-40.879-23.083-55.637s-34.765-23.057-55.637-23.083zM304 0h-161.281c-20.87 0.026-40.879 8.324-55.637 23.083s-23.058 34.765-23.082 55.637v161.28c0 63.424 96 63.505 96 0v-144h144c63.411 0 63.524-96 0-96zM912 400h-800.001c-63.411 0-63.524 96 0 96h800.001c63.411 0 63.522-96 0-96z" />
<glyph unicode="&#xe91f;" glyph-name="help" d="M932.335 65.143c-10.551 48.341-65.609 236.335-277.052 303.471 22.46 14.127 42.372 31.953 58.846 52.638h82.244c47.676 0 86.46 38.784 86.46 86.455v117.858c0 19.977-6.831 38.379-18.253 53.035-110.251 318.034-556.11 318.589-666.772-0.004-11.418-14.656-18.247-33.055-18.247-53.031v-117.858c0-47.671 38.784-86.455 86.455-86.455h82.246c16.474-20.685 36.386-38.511 58.847-52.638-211.364-67.098-266.802-255.040-277.461-303.3-9.271-40.794 21.457-86.647 70.162-86.647 143.338 0 524.099 0 662.774 0.444 47.492 0 78.775 43.93 69.751 86.033zM827.78 625.565v-117.858c0-17.314-14.089-31.398-31.403-31.398h-49.506c24.073 56.414 24.073 124.241 0 180.657h49.506c17.314 0.002 31.403-14.085 31.403-31.401zM315.521 476.309h-49.505c-17.315 0-31.4 14.084-31.4 31.398v117.858c0 17.317 14.086 31.401 31.4 31.401h49.505c-24.072-56.417-24.072-124.239 0-180.657zM273.369 712.024c110.484 201.094 405.232 200.956 515.662 0h-74.901c-89.958 117.047-275.947 117.003-365.867 0h-74.893zM352.472 566.638c0 98.548 80.177 178.723 178.724 178.723 121.515 2.367 211.298-126.656 168.047-239.591h-109.116c-36.467-1.348-36.471-53.709 0-55.053h76.983c-105.762-125.18-314.633-49.92-314.639 115.92zM875.174 40.145c-3.093-3.802-7.684-5.982-12.676-5.982-138.679-0.439-519.373-0.439-662.688-0.439-10.156-0.252-18.623 9.958-16.357 19.934 84.937 366.063 605.923 374.161 695.049-0.064 0.956-4.779-0.252-9.673-3.328-13.449z" />
<glyph unicode="&#xe920;" glyph-name="qation" d="M512 152.998c27.614 0 50.001 22.387 50.001 50.001s-22.387 50.001-50.001 50.001c-27.614 0-50.001-22.387-50.001-50.001s22.387-50.001 50.001-50.001zM512 960c-282.968 0-512-228.994-512-512 0-282.97 228.994-512 512-512 282.97 0 512 228.992 512 512 0 282.968-228.992 512-512 512zM512 16c-238.754 0-432 193.216-432 432 0 238.754 193.214 432 432 432 238.754 0 432-193.214 432-432 0-238.754-193.216-432-432-432zM512 703c-88.224 0-160-71.776-160-160 0-22.091 17.908-39.998 40-39.998s40 17.907 40 39.998c0 44.112 35.887 80 80 80s80-35.888 80-80c0-44.111-35.887-79.998-80-79.998-22.093 0-40-17.911-40-40v-100.002c0-22.093 17.907-40 40-40s40 17.907 40 40v65.062c68.932 17.805 120 80.521 120 154.938 0 88.224-71.778 160-160 160z" />
<glyph unicode="&#xe921;" glyph-name="redeem" d="M899.209 604.406l-100.378 36.534c36.292 29.988 51.789 77.554 40.678 122.754-21.837 88.806-130.112 122.518-198.519 62.044l-69.303-61.264-13.713 91.88c-13.555 90.458-118.281 133.978-191.955 80.078-36.838-26.95-56.434-73.408-47.744-120.58l-94.636 34.444c-46.56 16.95-98.238-7.146-115.188-53.712l-40.98-112.594c-5.658-15.546 2.358-32.738 17.906-38.394 6.306-2.294 461.482-167.968 468.168-170.4-18.944 0-433.806 0-452.058 0-16.544 0-29.956-13.41-29.956-29.952v-419.379c0-49.549 40.314-89.865 89.866-89.865h599.111c49.553 0 89.865 40.316 89.865 89.865v341.295l23.177-8.435c15.471-5.636 32.708 2.295 38.391 17.903l40.981 112.593c16.947 46.567-7.151 98.237-53.713 115.185zM371.083-4.092h-209.688c-16.518 0-29.956 13.44-29.956 29.956v389.423h239.644v-419.379zM490.906-4.092h-59.913v419.379h59.913v-419.379zM680.666 780.849c34.752 30.722 89.613 13.488 100.663-31.462 11.785-47.926-34.539-89.482-80.9-72.634-39.437 14.354-57.92 21.080-97.408 35.454l77.645 68.642zM401.391 888.076c37.44 27.388 90.475 5.164 97.336-40.606l15.36-102.89c-11.055 4.024-86.524 31.494-97.398 35.45-46.368 16.886-55.126 78.914-15.298 108.046zM415.503 589.196l-281.488 102.454 30.736 84.444c5.65 15.522 22.876 23.55 38.396 17.904 31.5-11.464 243.62-88.67 253.335-92.206l-40.979-112.596zM528.098 548.212l-56.299 20.492 40.981 112.594 56.299-20.492-40.981-112.594zM790.46 25.865c0-16.516-13.44-29.956-29.956-29.956h-209.685v419.379h167.33l72.311-26.321v-363.102zM896.619 509.717l-30.733-84.446-281.489 102.451 40.981 112.595 253.338-92.206c15.522-5.65 23.552-22.877 17.903-38.394z" />
<glyph unicode="&#xe922;" glyph-name="refer-earn" d="M576.529 927.323c-52.71 0-96.026-43.375-96.026-96.089v-80.627c0-24.629 9.707-47.035 25.165-64.163-15.471-17.076-25.165-39.459-25.165-64.101v-87.074c0.068-17.603 14.323-31.858 31.927-31.926 17.702-0.068 32.107 14.225 32.175 31.926v87.074c0 18.31 13.615 31.925 31.923 31.925h320.567c18.313 0 31.987-13.615 31.987-31.925v-101.285c0-18.308-13.675-31.923-31.987-31.923h-304.917c-17.796 0.068-32.243-14.379-32.175-32.175 0.073-17.702 14.477-31.996 32.175-31.927h304.917c18.313 0 31.987-13.615 31.987-31.923v-101.286c0-18.308-13.675-31.923-31.987-31.923h-252.646c-17.702-0.073-31.996-14.477-31.923-32.175 0.064-17.604 14.319-31.859 31.923-31.927h252.646c18.313 0 31.987-13.867 31.987-32.175v-101.035c0-18.308-13.675-31.987-31.987-31.987h-320.567c-14.093 0-25.203 8.431-29.794 20.343-4.996 13.043-66.359-6.635-59.844-23.159 13.406-34.778 47.74-61.286 89.643-61.286 0 0 319.159-0.060 326.323-0.060 50.539 0 90.33 45.406 90.33 96.149v101.035c0 24.631-9.766 46.972-25.229 64.102 15.475 17.075 25.229 39.458 25.229 64.098v101.286c0 24.597-9.741 46.908-25.165 63.974 15.424 17.067 25.165 39.377 25.165 63.974v101.285c0 24.642-9.754 47.025-25.229 64.101 15.462 17.128 25.229 39.534 25.229 64.163v80.627c0 52.714-43.375 96.089-96.090 96.089h-320.567zM576.529 863.222h320.567c18.313 0 31.987-13.678 31.987-31.988v-80.627c0-18.31-13.675-32.175-31.987-32.175h-320.567c-18.308 0-31.923 13.865-31.923 32.175v80.627c0 18.31 13.615 31.988 31.923 31.988zM352.324 489.067c-17.798 0.111-32.258-14.327-32.187-32.124v-6.571c-44.012-9.783-77.437-49.297-77.437-96.060 0-53.999 44.498-98.5 98.5-98.5h22.132c19.654 0 34.25-14.852 34.25-34.5s-14.597-34.436-34.25-34.436h-29.75c-13.679 0-24.955 7.462-30.688 18.372-8.2 15.689-27.581 21.739-43.25 13.5-15.666-8.222-21.686-27.597-13.438-43.247 14.465-27.567 41.934-47.283 73.876-51.691v-4.932c0.069-17.702 14.487-31.983 32.187-31.876 17.573 0.073 31.807 14.302 31.875 31.876v6.31c44.11 9.677 77.437 49.267 77.437 96.128 0 53.999-44.247 98.5-98.249 98.5h-9.567c-0.484 0.013-1.088 0.013-1.56 0h-11.127c-19.654 0-34.499 14.912-34.499 34.56s14.845 34.441 34.499 34.441h29.751c13.667 0 24.779-7.462 30.499-18.377 8.224-15.629 27.549-21.705 43.186-13.5 15.65 8.201 21.696 27.597 13.504 43.251-14.502 27.635-41.939 47.411-73.941 51.75v4.932c0.069 17.668-14.204 32.051-31.875 32.124l0.122 0.068zM352.141 608.008c-176.352 0-320.079-143.726-320.079-320.080 0-176.35 143.726-319.842 320.079-319.842s319.842 143.492 319.842 319.842c0 176.354-143.488 320.080-319.842 320.080zM352.141 543.992c141.764 0 256.064-114.3 256.064-256.064s-114.3-255.825-256.064-255.825c-141.764 0-256.063 114.061-256.063 255.825s114.299 256.064 256.063 256.064z" />
<glyph unicode="&#xe923;" glyph-name="our-products" d="M1001.485 436.463l-219.486 73.161v340.376c0 12.912-8.265 24.376-20.514 28.46l-240 80c-6.157 2.052-12.813 2.048-18.974 0l-239.999-80c-12.25-4.082-20.512-15.546-20.512-28.46v-340.376l-219.488-73.161c-12.25-4.083-20.512-15.548-20.512-28.463v-362.001c0-12.911 8.262-24.375 20.512-28.459l240-80c3.080-1.028 6.284-1.54 9.488-1.54s6.408 0.512 9.488 1.54l230.512 76.838 230.515-76.838c3.076-1.028 6.285-1.54 9.485-1.54s6.409 0.512 9.485 1.54l240 80c12.25 4.083 20.514 15.548 20.514 28.459v362.001c0 12.915-8.265 24.38-20.514 28.463zM752 359.625l-145.131 48.375 145.131 48.38 145.131-48.38-145.131-48.375zM272 456.38l145.13-48.38-145.13-48.375-145.132 48.375 145.132 48.38zM482.001 748.378v-298.752l-180.001 59.998v298.755l180.001-60zM722.001 509.623l-180.002-59.998v298.752l180.002 60v-298.755zM302 306.377l180.001 60.002v-298.756l-180.001-59.998v298.752zM512 898.378l145.131-48.378-145.131-48.376-145.132 48.376 145.132 48.378zM62 366.379l180-60.002v-298.752l-180 59.998v298.756zM541.999 366.379l180.002-60.002v-298.752l-180.002 59.998v298.756zM781.999 7.625v298.752l180.002 60.002v-298.756l-180.002-59.998z" />
<glyph unicode="&#xe924;" glyph-name="promotion" d="M1024 483.183c0 92.849-67.601 170.194-156.169 185.433v136.278c0 32.732-18.859 61.634-50.445 77.312-29.803 14.792-63.996 14.792-93.798 0l-414.292-205.632c-4.5 12.226-16.216 20.962-30.004 20.962h-123.646c-85.824 0-155.646-69.822-155.646-155.646v-117.416c0-85.009 68.512-154.274 153.214-155.584v-187.132c0-43.58 35.458-79.040 79.040-79.040s79.038 35.46 79.038 79.040v207.040l412.296-204.642c14.908-7.394 30.899-11.093 46.899-11.093 15.996 0 32 3.699 46.899 11.093 31.586 15.68 50.445 44.582 50.445 77.312v136.282c88.567 15.236 156.169 92.582 156.169 185.434zM64 424.474v117.416c0 50.534 41.112 91.646 91.646 91.646h91.646v-300.71h-91.646c-50.534 0-91.646 41.114-91.646 91.648zM232.252 66.718c-8.152 0-15.040 6.886-15.040 15.040v187.068h30.078v-187.068c0.002-8.149-6.884-15.040-15.038-15.040zM803.831 161.468c0-8.354-5.013-15.078-14.899-19.985-11.891-5.905-24.994-5.905-36.89 0l-440.751 218.765v245.868l440.751 218.764c11.895 5.904 24.998 5.904 36.89 0 9.886-4.908 14.899-11.632 14.899-19.986v-643.426zM867.831 363.217v239.933c53.005-14.152 92.169-62.564 92.169-119.967s-39.164-105.813-92.169-119.966z" />
<glyph unicode="&#xe925;" glyph-name="invoice" d="M407.703 471.164c-15.719 0-28.444 12.719-28.444 28.446 0 15.723 12.72 28.446 28.444 28.446 15.719 0 28.445-12.723 28.445-28.446 0-15.71 12.736-28.446 28.446-28.446 15.706 0 28.442 12.736 28.442 28.446 0 22.793-8.875 44.221-24.99 60.339-9.161 9.16-20.036 15.971-31.898 20.152v23.807c0 15.709-12.736 28.444-28.445 28.444s-28.444-12.736-28.444-28.444v-23.803c-11.863-4.183-22.738-10.994-31.896-20.152-16.119-16.116-24.992-37.545-24.992-60.338s8.877-44.224 24.992-60.339c16.116-16.119 37.546-24.994 60.34-24.994 15.719 0 28.445-12.719 28.445-28.446 0-15.718-12.72-28.442-28.445-28.442-15.719 0-28.444 12.719-28.444 28.442 0 15.71-12.736 28.446-28.444 28.446s-28.445-12.736-28.445-28.446c0-22.793 8.877-44.22 24.992-60.339 9.158-9.156 20.033-15.97 31.896-20.151v-23.808c0-15.71 12.736-28.446 28.444-28.446s28.445 12.736 28.445 28.446v23.804c11.861 4.181 22.737 10.995 31.898 20.151 16.119 16.115 24.99 37.547 24.99 60.339s-8.875 44.22-24.99 60.339c-16.119 16.119-37.547 24.994-60.342 24.994zM796.442 874.664h-568.887c-78.421 0-142.222-63.801-142.222-142.222v-701.629c0-23.795 27.61-37.090 46.214-22.212l53.341 42.675 53.341-42.675c10.39-8.307 25.151-8.307 35.539 0l53.341 42.675 53.341-42.675c10.39-8.307 25.151-8.307 35.539 0l53.342 42.675 53.342-42.675c10.389-8.307 25.148-8.307 35.537 0l53.342 42.675 53.346-42.675c18.526-14.818 46.212-1.702 46.212 22.212v445.628h142.221c47.053 0 85.333 38.281 85.333 85.335v170.666c-0.004 78.421-63.804 142.222-142.225 142.222zM654.221 732.442c0-10.851 0-638.405 0-642.446l-24.9 19.921c-10.389 8.307-25.148 8.307-35.537 0l-53.342-42.675-53.342 42.675c-10.389 8.307-25.152 8.307-35.537 0l-53.344-42.675-53.341 42.675c-10.389 8.307-25.151 8.307-35.539 0l-53.341-42.675-53.345 42.675c-10.389 8.307-25.151 8.307-35.539 0l-24.897-19.921v642.446c0 47.053 38.28 85.333 85.333 85.333h455.185c-17.89-23.786-28.514-53.341-28.514-85.333zM881.775 561.776c0-15.685-12.762-28.443-28.446-28.443h-142.221v199.109c0 47.053 38.281 85.333 85.333 85.333s85.333-38.28 85.333-85.333v-170.666z" />
<glyph unicode="&#xe926;" glyph-name="history" d="M547.998 660.399v-197.487l131.055-131.059c14.063-14.059 14.063-36.851 0-50.91-14.059-14.059-36.851-14.059-50.91 0l-141.602 141.602c-6.75 6.75-10.543 15.906-10.543 25.455v212.399c0 19.883 16.115 36 36.002 36 19.883 0 35.998-16.117 35.998-36zM653.598 908.8h-283.2c-75.402 0-149.791-26.5-209.311-78.26v42.26c0 19.883-16.117 36-36 36s-36-16.117-36-36v-141.601c0-19.883 16.256-36 36-36h141.6c19.883 0 36 16.117 36 36s-16.117 36-36 36h-68.099c45.565 43.929 107.073 69.601 171.81 69.601h283.2c136.307 0 247.202-110.893 247.202-247.2v-283.198c0-136.311-110.895-247.202-247.202-247.202h-283.2c-136.307 0-247.2 110.891-247.2 247.198v141.602c0 19.883-16.117 35.998-36 35.998s-36-16.115-36-35.998v-141.602c0-176.009 143.192-319.198 319.2-319.198h283.2c176.009 0 319.202 143.189 319.202 319.198v283.202c0 176.008-143.194 319.2-319.202 319.2v0z" />
<glyph unicode="&#xe927;" glyph-name="gads" d="M949.995 292.186l-289.856 502.044c-65.344 113.184-231.228 112.683-296.284 0l-289.857-502.044c-65.176-112.887 17.403-253.547 146.068-253.547 57.798 0 114.908 29.641 146.618 84.565l145.311 251.686 145.314-251.686c31.659-54.844 88.725-84.565 146.615-84.565 128.58 0 211.281 140.599 146.069 253.547zM315.389 152.819c-25.584-44.318-77.594-64.38-125.484-50.607-68.772 19.981-100.022 99.029-64.613 160.358 30.326 52.527 97.383 70.507 149.924 40.175 52.532-30.332 70.507-97.391 40.173-149.926zM379.61 264.051c-27.59 78.357-108.346 125.056-190.095 109.751l163.649 283.444c7.291-22.293 2.17-11.006 124.639-223.127l-98.193-170.069zM858.526 112.644c-52.523-30.327-119.59-12.365-149.922 40.175l-289.855 502.044c-55.311 95.8 51.314 204.785 146.324 149.924 35.554-20.527 25.771-8.998 333.628-542.217 30.259-52.412 12.237-119.667-40.175-149.926z" />
<glyph unicode="&#xe928;" glyph-name="gift" d="M889.418 480.768v-455.242h-753.664v455.242h-70.218v-490.35c0-19.392 15.716-35.108 35.108-35.108h823.882c19.392 0 35.108 15.716 35.108 35.108v490.35h-70.216zM988.892 744.094h-953.784c-19.392 0-35.108-15.716-35.108-35.108v-229.376c0-19.392 15.716-35.108 35.108-35.108h953.782c19.392 0 35.108 15.706 35.108 35.108v229.376c0.002 19.392-15.714 35.108-35.106 35.108zM953.782 514.706h-883.564v159.158h883.566v-159.158zM546.546 717.868c-2.388 9.104-60.304 222.822-229.4 222.822-73.564 0-133.412-59.848-133.412-133.412s59.322-133.412 132.242-133.412h196.608c10.872 0 21.148 5.044 27.794 13.658s8.918 19.824 6.168 30.344zM315.978 744.082c-34.78 0-62.026 27.76-62.026 63.196 0 34.254 28.942 63.196 63.196 63.196 77.040 0 123.172-75.894 145.35-126.39h-146.52zM708.022 940.69c-169.094 0-227.012-213.718-229.4-222.822-2.762-10.52-0.48-21.732 6.168-30.346s16.91-13.658 27.794-13.658h196.608c72.92 0 132.242 59.848 132.242 133.412 0.002 73.566-59.846 133.414-133.412 133.414zM709.194 744.082h-146.66c22.014 50.498 68.006 126.39 145.502 126.39 34.254 0 63.196-28.942 63.196-63.196-0.002-35.434-27.246-63.194-62.038-63.194zM477.476 708.974h70.218v-718.556h-70.218v718.556z" />
</font>
</defs>
</svg>
